<svg xmlns="http://www.w3.org/2000/svg" version="1.1" xmlns:xlink="http://www.w3.org/1999/xlink" xmlns:svgjs="http://svgjs.com/svgjs" width="1445" height="467" preserveAspectRatio="none" viewBox="0 0 1445 467"><g mask="url(&quot;#SvgjsMask1702&quot;)" fill="none"><rect width="1445" height="467" x="0" y="0" fill="rgba(48, 52, 55, 1)"></rect><path d="M7 467L474 0L864 0L397 467z" fill="url(#SvgjsLinearGradient1703)"></path><path d="M369.90000000000003 467L836.9000000000001 0L1004.9000000000001 0L537.9000000000001 467z" fill="url(#SvgjsLinearGradient1703)"></path><path d="M693.8000000000001 467L1160.8000000000002 0L1427.8000000000002 0L960.8000000000001 467z" fill="url(#SvgjsLinearGradient1703)"></path><path d="M1433 467L966 0L583.5 0L1050.5 467z" fill="url(#SvgjsLinearGradient1704)"></path><path d="M1095.1 467L628.0999999999999 0L472.0999999999999 0L939.0999999999999 467z" fill="url(#SvgjsLinearGradient1704)"></path><path d="M780.1999999999999 467L313.19999999999993 0L236.69999999999993 0L703.6999999999999 467z" fill="url(#SvgjsLinearGradient1704)"></path><path d="M1183.396300286593 467L1445 205.39630028659303L1445 467z" fill="url(#SvgjsLinearGradient1703)"></path><path d="M0 467L261.60369971340697 467L 0 205.39630028659303z" fill="url(#SvgjsLinearGradient1704)"></path></g><defs><mask id="SvgjsMask1702"><rect width="1445" height="467" fill="#ffffff"></rect></mask><linearGradient x1="0%" y1="100%" x2="100%" y2="0%" id="SvgjsLinearGradient1703"><stop stop-color="rgba(241, 242, 242, 1)" offset="0"></stop><stop stop-opacity="0" stop-color="rgba(241, 242, 242, 1)" offset="0.66"></stop></linearGradient><linearGradient x1="100%" y1="100%" x2="0%" y2="0%" id="SvgjsLinearGradient1704"><stop stop-color="rgba(241, 242, 242, 1)" offset="0"></stop><stop stop-opacity="0" stop-color="rgba(241, 242, 242, 1)" offset="0.66"></stop></linearGradient></defs></svg>