<svg xmlns="http://www.w3.org/2000/svg" version="1.1" xmlns:xlink="http://www.w3.org/1999/xlink" xmlns:svgjs="http://svgjs.com/svgjs" width="1440" height="560" preserveAspectRatio="none" viewBox="0 0 1440 560"><g mask="url(&quot;#SvgjsMask2284&quot;)" fill="none"><rect width="1440" height="560" x="0" y="0" fill="url(#SvgjsLinearGradient2285)"></rect><path d="M1440 0L1037.7 0L1440 266.21z" fill="rgba(255, 255, 255, .1)"></path><path d="M1037.7 0L1440 266.21L1440 418.53L504.71000000000004 0z" fill="rgba(255, 255, 255, .075)"></path><path d="M504.71000000000004 0L1440 418.53L1440 426.66999999999996L212.17000000000002 0z" fill="rgba(255, 255, 255, .05)"></path><path d="M212.17000000000007 0L1440 426.66999999999996L1440 521.12L131.48000000000008 0z" fill="rgba(255, 255, 255, .025)"></path><path d="M0 560L519.84 560L0 482.49z" fill="rgba(0, 0, 0, .1)"></path><path d="M0 482.49L519.84 560L573.77 560L0 470.8z" fill="rgba(0, 0, 0, .075)"></path><path d="M0 470.8L573.77 560L731.05 560L0 432.93z" fill="rgba(0, 0, 0, .05)"></path><path d="M0 432.93L731.05 560L1079.32 560L0 327.02z" fill="rgba(0, 0, 0, .025)"></path></g><defs><mask id="SvgjsMask2284"><rect width="1440" height="560" fill="#ffffff"></rect></mask><linearGradient x1="15.28%" y1="-39.29%" x2="84.72%" y2="139.29%" gradientUnits="userSpaceOnUse" id="SvgjsLinearGradient2285"><stop stop-color="rgba(33, 37, 41, 1)" offset="0.1"></stop><stop stop-color="rgba(52, 58, 64, 1)" offset="0.36"></stop><stop stop-color="rgba(33, 37, 41, 1)" offset="0.69"></stop></linearGradient></defs></svg>